Coordinates
version=1
nRows=26
nColumns=24
inDegrees=yes

Units are S.I. units (second, meters, Newtons, ...)
Angles are in degrees.

endheader
time	pelvis_tilt	pelvis_list	pelvis_rotation	pelvis_tx	pelvis_ty	pelvis_tz	hip_flexion_r	hip_adduction_r	hip_rotation_r	knee_angle_r	ankle_angle_r	subtalar_angle_r	mtp_angle_r	hip_flexion_l	hip_adduction_l	hip_rotation_l	knee_angle_l	ankle_angle_l	subtalar_angle_l	mtp_angle_l	lumbar_extension	lumbar_bending	lumbar_rotation
      0.68800000	     -2.94716187	      6.57197247	     11.71917842	     -0.01168649	      0.97056355	      0.27516321	     35.11041974	    -13.27691404	    -10.47372128	     -6.86647257	      6.79512061	     -8.87730772	     -9.97928141	    -17.18330104	      5.25262626	      3.08497897	     -6.47490831	     13.17962357	     -5.00838162	     -1.22296321	     -8.62599991	     -5.03148551	     -8.97611930
      0.69216667	     -2.96962908	      6.57154973	     11.87687695	     -0.00571917	      0.96967300	      0.27546763	     35.01426037	    -13.32163427	    -10.50959264	     -7.57222117	      6.76935407	     -8.96609539	     -9.97435259	    -17.41372827	      5.08611288	      3.12360987	     -6.66096377	     13.06781244	     -4.84015115	     -1.22075558	     -8.57923988	     -4.97106297	     -9.01982249
      0.69633333	     -2.99866498	      6.56289925	     12.02497003	      0.00033462	      0.96880300	      0.27577798	     34.90754986	    -13.35218020	    -10.57768605	     -8.24884454	      6.69782943	     -9.06875325	     -9.96984225	    -17.63690325	      4.91379725	      3.13057765	     -6.84536868	     12.91109615	     -4.70482261	     -1.21442592	     -8.49949606	     -4.90542971	     -9.05667961
      0.70050000	     -2.95604850	      6.49506633	     12.24316024	      0.00639094	      0.96814993	      0.27595615	     34.65885661	    -13.35819589	    -10.79825618	     -8.83609770	      6.54595352	     -9.13541756	     -9.93307149	    -17.89478336	      4.64064602	      3.15526631	     -7.08236465	     12.82803394	     -4.43901200	     -1.15843404	     -8.51180551	     -4.72905972	     -9.26981013
      0.70466667	     -2.99370323	      6.48142907	     12.37317876	      0.01253932	      0.96733979	      0.27630718	     34.53119922	    -13.36656160	    -10.88333595	     -9.43482478	      6.37745187	     -9.25767281	     -9.92286412	    -18.10758264	      4.46795850	      3.16830956	     -7.26100924	     12.58345606	     -4.34031076	     -1.14012700	     -8.41706409	     -4.65723670	     -9.28201901
      0.70883333	     -2.91386213	      6.35824867	     12.58309194	      0.01872056	      0.96686588	      0.27650655	     34.18079364	    -13.29265293	    -11.15017537	     -9.86866127	      6.04377024	     -9.48828353	     -9.85055340	    -18.39043525	      4.12868026	      3.18945234	     -7.49350083	     12.40334901	     -4.18072595	     -1.01753245	     -8.45122349	     -4.40779971	     -9.45598668
      0.71300000	     -2.81378169	      6.26479317	     12.73038039	      0.02496818	      0.96642709	      0.27680249	     33.82531577	    -13.20805286	    -11.38604136	    -10.28760501	      5.70764035	     -9.67508173	     -9.70865284	    -18.71871951	      3.83057978	      3.17500791	     -7.67935641	     12.12123109	     -4.02334029	     -0.78456635	     -8.49507955	     -4.19917790	     -9.56352935
      0.71716667	     -2.85039091	      6.17234696	     12.88196322	      0.03121365	      0.96582018	      0.27712244	     33.62141359	    -13.13867751	    -11.58643108	    -10.66952072	      5.25563722	     -9.93641127	     -9.62800641	    -18.86918550	      3.57067543	      3.17993760	     -7.93689536	     11.82988603	     -3.96390280	     -0.64038643	     -8.39057702	     -4.02543609	     -9.58388860
      0.72133333	     -2.80280156	      6.04331800	     13.01347018	      0.03750489	      0.96541692	      0.27747859	     33.30029108	    -13.00307744	    -11.81891508	    -10.95579803	      4.70615363	    -10.27265303	     -9.50718993	    -19.09460469	      3.25424156	      3.13497301	     -8.19138922	     11.49332185	     -3.86758667	     -0.42471808	     -8.36972704	     -3.78383782	     -9.65472474
      0.72550000	     -2.67233525	      5.89105194	     13.10750111	      0.04385580	      0.96521028	      0.27789642	     32.87623862	    -12.80695151	    -12.08186912	    -11.15934858	      4.04788084	    -10.64878620	     -9.29215042	    -19.40424458	      2.90058050	      3.03701458	     -8.42863686	     11.12089164	     -3.71628153	     -0.04299900	     -8.42241251	     -3.51340172	     -9.72971576
      0.72966667	     -2.75110375	      5.75066642	     13.21776162	      0.05022306	      0.96472518	      0.27823460	     32.70803094	    -12.67552489	    -12.34019775	    -11.38823727	      3.34270029	    -10.98369305	     -9.21715617	    -19.46775629	      2.62450879	      3.02400927	     -8.73266934	     10.71803004	     -3.76736460	      0.10535545	     -8.22722967	     -3.30125995	     -9.67242657
      0.73383333	     -2.53425343	      5.48762798	     13.24915949	      0.05669091	      0.96478565	      0.27876443	     32.16914597	    -12.31105165	    -12.62655829	    -11.42516641	      2.46301864	    -11.43902077	     -8.79467832	    -19.80618595	      2.15105768	      2.76166143	     -9.03157543	     10.28462892	     -3.56404020	      0.86668004	     -8.35486013	     -2.86117564	     -9.66053478
      0.73800000	     -2.63074448	      5.36808629	     13.32499568	      0.06299781	      0.96441973	      0.27918942	     32.04183465	    -12.17900043	    -12.83780523	    -11.59735189	      1.57072961	    -11.92518200	     -8.70847295	    -19.80525067	      1.92060240	      2.77040413	     -9.40812217	      9.78289551	     -3.72133538	      1.04744900	     -8.16228002	     -2.68139578	     -9.63749405
      0.74216667	     -2.49017061	      5.13294951	     13.26907562	      0.06945800	      0.96446176	      0.27990149	     31.64263240	    -11.80358589	    -13.01182664	    -11.61738694	      0.47758442	    -12.53965306	     -4.68969799	    -20.03445202	      1.53153161	      2.48921231	     -9.74999168	      9.15018031	     -3.74956021	      8.64430388	     -8.21455594	     -2.32163934	     -9.46191303
      0.74633333	     -2.57353360	      4.94836710	     13.29860512	      0.07584312	      0.96425084	      0.28036855	     31.52325670	    -11.59243772	    -13.25984086	    -11.75449545	     -0.50263711	    -12.97751804	     -4.71423662	    -19.98491503	      1.25154595	      2.40021545	    -10.21153159	      8.61291441	     -3.88525575	      8.67978444	     -8.01440134	     -2.04687437	     -9.47705009
      0.75050000	     -2.45296188	      4.70426146	     13.19696333	      0.08226917	      0.96439630	      0.28119395	     31.18641512	    -11.18686428	    -13.36828790	    -11.78538335	     -1.63590119	    -13.61911291	     -4.71599883	    -20.12306666	      0.88004367	      2.07436202	    -10.68803106	      8.03368064	     -3.84041032	      8.84100700	     -8.05298507	     -1.68111670	     -9.39699386
      0.75466667	     -2.43242010	      4.46708117	     13.09975275	      0.08870848	      0.96446359	      0.28194520	     30.98803655	    -10.82822404	    -13.50065330	    -11.87559094	     -2.72362612	    -14.14662137	     -4.68962532	    -20.12974444	      0.55686203	      1.81141834	    -11.21865106	      7.39641605	     -3.95741455	      9.04378417	     -7.96951711	     -1.34593534	     -9.22996539
      0.75883333	     -2.49385128	      4.22694073	     13.01172364	      0.09518426	      0.96448793	      0.28257256	     30.90362525	    -10.51229087	    -13.67604986	    -12.03440011	     -3.70505465	    -14.50077014	     -4.67416648	    -20.02218316	      0.26737920	      1.60566220	    -11.80302666	      6.69981573	     -4.22620844	      9.15342090	     -7.77015425	     -1.00535793	     -9.08368651
      0.76300000	     -2.39122752	      3.96586501	     12.76641393	      0.10163671	      0.96476298	      0.28370240	     30.67424307	    -10.02461727	    -13.62062360	    -12.14187437	     -4.83303575	    -15.13952075	     -4.58940405	    -20.05362992	     -0.06631233	      1.11706838	    -12.44087848	      6.02036536	     -4.21693306	      9.50994355	     -7.79877049	     -0.65280048	     -8.82296400
      0.76716667	     -2.36395654	      3.65221761	     12.48673068	      0.10824134	      0.96496226	      0.28480488	     30.54730394	     -9.50220895	    -13.58071348	    -12.30187861	     -5.78557016	    -15.56648336	     -4.41516326	    -19.98096795	     -0.41653455	      0.56983081	    -13.12634812	      5.26697068	     -4.30190133	     10.20913508	     -7.69403553	     -0.24202160	     -8.49935298
      0.77133333	     -2.42569246	      3.42737540	     12.36019264	      0.11463298	      0.96521656	      0.28546025	     30.51805273	     -9.20891422	    -13.71896816	    -12.56798280	     -6.64613846	    -15.77820168	     -4.38417395	    -19.75831252	     -0.65873543	      0.36712267	    -13.91486827	      4.47120672	     -4.71952252	     10.36909306	     -7.52255687	      0.08335795	     -8.35724331
      0.77550000	     -2.38672729	      3.16962831	     12.04060551	      0.12108022	      0.96557818	      0.28668547	     30.42234650	     -8.72604003	    -13.58664300	    -12.80831541	     -7.60201093	    -16.25275702	     -4.26603581	    -19.61793487	     -0.93730141	     -0.17569885	    -14.75565068	      3.67366473	     -4.85982351	     10.88914940	     -7.48256052	      0.41382794	     -8.01773281
      0.77966667	     -2.40107093	      2.89230983	     11.77494637	      0.12754623	      0.96596746	      0.28772217	     30.36614643	     -8.28193664	    -13.52763441	    -13.06869901	     -8.38367906	    -16.49661786	     -4.15743333	    -19.36991175	     -1.22585799	     -0.63835909	    -15.68157784	      2.82227063	     -5.15437278	     11.40945637	     -7.36349647	      0.77564948	     -7.71184389
      0.78383333	     -2.40112199	      2.60757157	     11.44082752	      0.13404161	      0.96638960	      0.28889858	     30.32384561	     -7.79847714	    -13.41815498	    -13.38011521	     -9.08303756	    -16.70230170	     -4.03052786	    -19.10969819	     -1.51298632	     -1.20819783	    -16.66613172	      1.95062549	     -5.41621863	     12.07108699	     -7.26179122	      1.14214283	     -7.37088088
      0.78800000	     -2.41575148	      2.29332707	     10.95749375	      0.14065022	      0.96671269	      0.29045650	     30.33916682	     -7.20108912	    -13.13912787	    -13.74291175	     -9.59106401	    -16.81623374	     -3.73283093	    -18.81579776	     -1.81609114	     -2.04218052	    -17.71699165	      1.09148904	     -5.53993795	     13.87215039	     -7.13688580	      1.51336371	     -6.93149891
      0.79216667	     -2.42094347	      2.04125300	     10.81449505	      0.14695279	      0.96738303	      0.29110590	     30.24919859	     -6.89454075	    -13.27196866	    -14.08235774	    -10.07963488	    -16.71927882	     -3.71019920	    -18.42383444	     -2.09113070	     -2.30013526	    -18.89541850	      0.16443807	     -6.12090392	     14.07748932	     -7.04381158	      1.88817933	     -6.83629920
